<svg version="1.1" id="Layer_1" xmlns="http://www.w3.org/2000/svg" x="0" y="0" viewBox="0 0 313.6 229.6" xml:space="preserve"><style type="text/css">.st0,.st1{fill:#fff}.st0,.st1,.st2{stroke:#000;stroke-width:3;stroke-miterlimit:10}.st1,.st2{stroke-linecap:round;stroke-linejoin:round}.st2{fill:none}</style><path class="st0" d="M77.7 133.6l62.1-2.1 66.8 12.7c8.1 2.4 16.4-1.1 18.4-7.8l4.6-15.4 4.6-15.4c2-6.7-3-14.2-11.1-16.6l-62.8-26.1L109.7 27l-32 106.6z"/><path class="st0" d="M77.7 133.6l62.1-2.1 66.8 12.7c8.1 2.4 16.4-1.1 18.4-7.8l4.6-15.4 4.6-15.4c2-6.7-3-14.2-11.1-16.6l-62.8-26.1L109.7 27l-32 106.6z"/><path class="st0" d="M174.2 138.1l32.4 6.2c8.1 2.4 16.4-1.1 18.4-7.8l4.6-15.4 4.6-15.4c2-6.7-3-14.2-11.1-16.6l-28.5-11.8"/><path class="st1" d="M121.8 35.3l-29.2 97.2"/><path class="st2" d="M209.1 145.3l-42.8 71.4-15.2-4.6 42.8-134.2m-23.7 73l-8.6-2.6 3.1-11.5"/><path class="st1" d="M211.2 98l-9.4-2.8m7.4 9.5l-9.4-2.8m7.4 9.5l-9.5-2.8m7.5 9.5l-9.5-2.8m7.5 9.5l-9.5-2.8m7.5 9.5l-9.5-2.8M95.5 44.6L90 62.9m-9.1 30.6l-5.5 18.3M51.9 68.1l18.3 5.5M54.6 94.8l16.8-9m6.5-21.6l-9.1-16.9"/><path class="st2" d="M95.7 72.3c-4.7-1.4-9.7 1.3-11.1 6-1.4 4.7 1.3 9.7 6 11.1M30.8 190.1s8.6-1.6 8.8-10.9m8.9 10.9s-8.6-1.6-8.8-10.9m8.8 10.9s-8.6 1.6-8.8 10.9m-8.9-10.9s8.6 1.6 8.8 10.9m181.2-20.9s8.6-1.6 8.8-10.9m8.9 10.9s-8.6-1.6-8.8-10.9m8.8 10.9s-8.6 1.6-8.8 10.9m-8.9-10.9s8.6 1.6 8.8 10.9m-8.1-163.6s8.6-1.6 8.8-10.9m8.9 10.9s-8.6-1.6-8.8-10.9m8.8 10.9s-8.6 1.6-8.8 10.9m-8.9-10.9s8.6 1.6 8.8 10.9M105.5 154.4s4.5-.9 4.7-5.8m4.6 5.8s-4.5-.9-4.6-5.8m4.6 5.8s-4.5.9-4.6 5.7m-4.7-5.7s4.5.9 4.7 5.7M25.5 34.4s4.5-.9 4.7-5.8m4.6 5.8s-4.5-.9-4.6-5.8m4.6 5.8s-4.5.9-4.6 5.7m-4.7-5.7s4.5.9 4.7 5.7m255.3 24.3s4.5-.9 4.7-5.8m4.6 5.8s-4.5-.9-4.6-5.8m4.6 5.8s-4.5.9-4.6 5.7m-4.7-5.7s4.5.9 4.7 5.7m-14.7 64.3s4.5-.9 4.7-5.8m4.6 5.8s-4.5-.9-4.6-5.8m4.6 5.8s-4.5.9-4.6 5.7m-4.7-5.7s4.5.9 4.7 5.7M1.5 126.4s4.5-.9 4.7-5.8m4.6 5.8s-4.5-.9-4.6-5.8m4.6 5.8s-4.5.9-4.6 5.7m-4.7-5.7s4.5.9 4.7 5.7"/><path class="st1" d="M121.8 35.3l-29.2 97.2"/><path class="st0" d="M176.6 138.6l30 5.7c8.1 2.4 16.4-1.1 18.4-7.8l4.6-15.4 4.6-15.4c2-6.7-3-14.2-11.1-16.6l-26.7-11"/><path class="st1" d="M170.2 150.9l-8.6-2.6 3.1-11.5 9.5 2.3-23.1 73 15.2 5.6 42.8-71.4-34.9-7.2m37-41.1l-9.4-2.8m7.4 9.5l-9.4-2.8m7.4 9.5l-9.5-2.8m7.5 9.5l-9.5-2.8m7.5 9.5l-9.5-2.8m7.5 9.5l-9.5-2.8M95.5 44.6L90 62.9m-9.1 30.6l-5.5 18.3M51.9 68.1l18.3 5.5M54.6 94.8l16.8-9m6.5-21.6l-9.1-16.9"/><path class="st2" d="M95.7 72.3c-4.7-1.4-9.7 1.3-11.1 6-1.4 4.7 1.3 9.7 6 11.1M30.8 190.1s8.6-1.6 8.8-10.9m8.9 10.9s-8.6-1.6-8.8-10.9m8.8 10.9s-8.6 1.6-8.8 10.9m-8.9-10.9s8.6 1.6 8.8 10.9m181.2-20.9s8.6-1.6 8.8-10.9m8.9 10.9s-8.6-1.6-8.8-10.9m8.8 10.9s-8.6 1.6-8.8 10.9m-8.9-10.9s8.6 1.6 8.8 10.9m-8.1-163.6s8.6-1.6 8.8-10.9m8.9 10.9s-8.6-1.6-8.8-10.9m8.8 10.9s-8.6 1.6-8.8 10.9m-8.9-10.9s8.6 1.6 8.8 10.9M105.5 154.4s4.5-.9 4.7-5.8m4.6 5.8s-4.5-.9-4.6-5.8m4.6 5.8s-4.5.9-4.6 5.7m-4.7-5.7s4.5.9 4.7 5.7M25.5 34.4s4.5-.9 4.7-5.8m4.6 5.8s-4.5-.9-4.6-5.8m4.6 5.8s-4.5.9-4.6 5.7m-4.7-5.7s4.5.9 4.7 5.7m255.3 24.3s4.5-.9 4.7-5.8m4.6 5.8s-4.5-.9-4.6-5.8m4.6 5.8s-4.5.9-4.6 5.7m-4.7-5.7s4.5.9 4.7 5.7m-14.7 64.3s4.5-.9 4.7-5.8m4.6 5.8s-4.5-.9-4.6-5.8m4.6 5.8s-4.5.9-4.6 5.7m-4.7-5.7s4.5.9 4.7 5.7M1.5 126.4s4.5-.9 4.7-5.8m4.6 5.8s-4.5-.9-4.6-5.8m4.6 5.8s-4.5.9-4.6 5.7m-4.7-5.7s4.5.9 4.7 5.7"/></svg>