<svg xmlns="http://www.w3.org/2000/svg" width="1122.3" height="184.1" viewBox="0 0 1122.3 184.1"><g stroke="#000" stroke-width="4" stroke-miterlimit="10"><path fill="#FFF" d="M811.2 80.8h-25.6m-5.5 0h-27.5m-5.3 0h-14.6m95.8 32.9l-14.4 6.2M828.5 48l-38.6-16.5m-4.6-2l-23.4-10m-4.5-2L745 12.2m50 45.7l-24.8-5.4m-4.8-1l-13.2-2.9m291.5 32.2h25.7m5.5 0h27.5m5.2 0h14.7M1026.5 48l38.5-16.5m4.7-2l23.4-10m-33.2 38.4l24.9-5.4m4.8-1l13.2-2.9m-76.3 65.1l38.5 16.5m4.7 2l23.4 10m4.4 1.9l12.5 5.4m-50.1-45.7l24.9 5.4m4.8 1l13.2 2.9m-59.1-32.3h25.7m5.5 0h27.5m5.2 0h14.7M1026.5 48l38.5-16.5m4.7-2l23.4-10m4.4-2l12.5-5.3m-50.1 45.7l24.9-5.4m4.8-1l13.2-2.9m-33.1 83.6l23.4 10m4.4 1.9l12.5 5.4m-50.1-45.7l24.9 5.4m4.8 1l13.2 2.9"/><circle fill="#EFC223" cx="927.5" cy="78.5" r="76.5"/><path fill="#FFF" d="M773.7 182.1h182.5s4.7-26.7-23.1-19.5c8.1-18.3-21.2-38.4-36-17.5 1.3-17.4-26.9-43.2-54.5-14.4-.2-36.9-70.7-84-110-14.4 0 0-40.1-14.9-40.1 23.6 0 0-14.6-1.3-14.6 21.9h158.8"/></g><g fill="none" stroke-width="5" stroke-linecap="round" stroke-linejoin="round" stroke-miterlimit="10"><path d="M196.4 58.3s15.5-2.9 16-19.7m15.9 19.7s-15.5-2.9-16-19.7m16 19.7s-15.5 2.9-16 19.7m-15.9-19.7s15.5 2.9 16 19.7" stroke="#050505"/><path d="M2.5 56.4h57.9m14 0h37.7m14 0h23.1m13.4 0h14.5" stroke="#000"/></g></svg>